HIERARCHY
ROOT reference
{
  OFFSET 0 0 0
  CHANNELS 6 Xposition Yposition Zposition Zrotation Xrotation Yrotation
  JOINT Hips
  {
    OFFSET -17.5265 86.8787 98.189
    CHANNELS 6 Xposition Yposition Zposition Zrotation Xrotation Yrotation
    JOINT Spine
    {
      OFFSET 0 7.85829 0
      CHANNELS 6 Xposition Yposition Zposition Zrotation Xrotation Yrotation
      JOINT Spine1
      {
        OFFSET 0 25.1384 0
        CHANNELS 6 Xposition Yposition Zposition Zrotation Xrotation Yrotation
        JOINT Neck
        {
          OFFSET 0 25.0351 2.27592
          CHANNELS 6 Xposition Yposition Zposition Zrotation Xrotation Yrotation
          JOINT Head
          {
            OFFSET 0 13.4166 -1.91665
            CHANNELS 6 Xposition Yposition Zposition Zrotation Xrotation Yrotation
            End Site
            {
              OFFSET 0 23.9582 0
            }
          }
        }
        JOINT LeftShoulder
        {
          OFFSET 3.81534 24.0346 -0.234509
          CHANNELS 6 Xposition Yposition Zposition Zrotation Xrotation Yrotation
          JOINT LeftArm
          {
            OFFSET 8.62273 0 0
            CHANNELS 6 Xposition Yposition Zposition Zrotation Xrotation Yrotation
            JOINT LeftForeArm
            {
              OFFSET 31.7064 0 0
              CHANNELS 6 Xposition Yposition Zposition Zrotation Xrotation Yrotation
              JOINT LeftHand
              {
                OFFSET 23.7731 0 0
                CHANNELS 6 Xposition Yposition Zposition Zrotation Xrotation Yrotation
                End Site
                {
                  OFFSET 14.3749 0 0
                }
              }
            }
          }
        }
        JOINT RightShoulder
        {
          OFFSET -3.83608 24.0346 -0.234509
          CHANNELS 6 Xposition Yposition Zposition Zrotation Xrotation Yrotation
          JOINT RightArm
          {
            OFFSET -8.62273 0 0
            CHANNELS 6 Xposition Yposition Zposition Zrotation Xrotation Yrotation
            JOINT RightForeArm
            {
              OFFSET -31.7064 0 0
              CHANNELS 6 Xposition Yposition Zposition Zrotation Xrotation Yrotation
              JOINT RightHand
              {
                OFFSET -23.7731 0 0
                CHANNELS 6 Xposition Yposition Zposition Zrotation Xrotation Yrotation
                End Site
                {
                  OFFSET -14.3749 0 0
                }
              }
            }
          }
        }
      }
    }
    JOINT LeftUpLeg
    {
      OFFSET 9.58328 0 0
      CHANNELS 6 Xposition Yposition Zposition Zrotation Xrotation Yrotation
      JOINT LeftLeg
      {
        OFFSET 0 -36.4535 0
        CHANNELS 6 Xposition Yposition Zposition Zrotation Xrotation Yrotation
        JOINT LeftFoot
        {
          OFFSET 0 -41.4659 0
          CHANNELS 6 Xposition Yposition Zposition Zrotation Xrotation Yrotation
          JOINT LeftToeBase
          {
            OFFSET 0 -6.22913 14.3749
            CHANNELS 6 Xposition Yposition Zposition Zrotation Xrotation Yrotation
            End Site
            {
              OFFSET 0 0 3.83331
            }
          }
        }
      }
    }
    JOINT RightUpLeg
    {
      OFFSET -9.58328 0 0
      CHANNELS 6 Xposition Yposition Zposition Zrotation Xrotation Yrotation
      JOINT RightLeg
      {
        OFFSET 0 -36.4535 0
        CHANNELS 6 Xposition Yposition Zposition Zrotation Xrotation Yrotation
        JOINT RightFoot
        {
          OFFSET 0 -41.4659 0
          CHANNELS 6 Xposition Yposition Zposition Zrotation Xrotation Yrotation
          JOINT RightToeBase
          {
            OFFSET 0 -6.22913 14.3749
            CHANNELS 6 Xposition Yposition Zposition Zrotation Xrotation Yrotation
            End Site
            {
              OFFSET 0 0 3.83331
            }
          }
        }
      }
    }
  }
}
MOTION
Frames:	4
Frame Time:	0.004
0 0 0 0 0 -0 36.3477 78.1184 -198.051 1.90082 -0.180349 1.59341 0 7.85829 0 -2.20097 -8.49311 0.0624277 -7.10543e-015 25.1384 0 0.460732 -1.68875 0.234008 0 25.0351 2.27592 -1.53906 30.1986 -1.58519 0 13.4166 -1.91665 0.087341 -5.70661 -1.84427 3.81534 24.0346 -0.234509 13.572 -0.625651 1.58599 8.62273 0 -2.84217e-014 -5.33354 -0.318531 -3.26649 31.7064 0 0 0.562805 -1.39473 -0.516661 23.7731 0 2.84217e-014 13.4182 -1.06479 2.78371 -3.83608 24.0346 -0.234509 -9.85303 1.22476 6.74102 -8.62273 2.84217e-014 0 1.67579 -1.97758 -0.612241 -31.7064 0 0 -1.26443 -2.14003 1.29796 -23.7731 2.84217e-014 0 -10.8124 -2.33226 2.18484 9.58328 0 0 0.563417 7.13298 -0.764097 0 -36.4535 2.84217e-014 -8.05105 -4.31341 0.308248 0 -41.4659 0 10.3788 -7.24713 7.44225 -1.42109e-014 -6.22913 14.3749 8.94531e-016 7.95139e-016 -0 -9.58328 -1.42109e-014 0 -1.60603 1.71163 -2.35611 0 -36.4535 0 4.24022 6.89682 0.757565 3.55271e-015 -41.4659 0 -15.0653 -12.6283 -18.6714 1.06581e-014 -6.22913 14.3749 -1.98785e-016 0 -0 
0 0 0 0 0 -0 36.3477 78.1184 -198.051 1.90485 -0.153377 1.58413 7.10543e-015 7.85829 0 -2.21574 -8.52215 0.0624324 0 25.1384 0 0.465475 -1.68875 0.234008 0 25.0351 2.27592 -1.49271 30.1984 -1.60472 3.55271e-015 13.4166 -1.91665 0.011001 -5.61574 -1.87271 3.81534 24.0346 -0.234509 13.5859 -0.625651 1.58599 8.62273 -5.68434e-014 0 -5.33018 -0.307224 -3.26648 31.7064 0 0 0.566482 -1.39545 -0.51657 23.7731 0 0 13.5108 -1.06981 2.72795 -3.83608 24.0346 -0.234509 -9.84979 1.20019 6.725 -8.62273 0 0 1.65553 -1.99419 -0.612247 -31.7064 -2.84217e-014 0 -1.24735 -2.11417 1.29794 -23.7731 0 -2.84217e-014 -10.8637 -2.30894 2.19769 9.58328 -1.42109e-014 0 0.568441 7.09852 -0.76404 0 -36.4535 -2.84217e-014 -8.06719 -4.29749 0.322151 0 -41.4659 0 10.2999 -7.24768 7.45527 -1.42109e-014 -6.22913 14.3749 4.96962e-016 0 1.59028e-015 -9.58328 0 2.84217e-014 -1.60479 1.68611 -2.35608 0 -36.4535 0 4.23449 6.89232 0.783535 -3.55271e-015 -41.4659 0 -15.022 -12.6277 -18.6791 -3.55271e-015 -6.22913 14.3749 7.95139e-016 -7.95139e-016 -6.36111e-015 
0 0 0 0 0 -0 36.3477 78.1184 -198.051 1.89062 -0.183396 1.58167 0 7.85829 2.84217e-014 -2.1971 -8.4901 0.0624272 7.10543e-015 25.1384 0 0.448423 -1.69442 0.234009 -7.10543e-015 25.0351 2.27592 -1.47426 30.1939 -1.61411 3.55271e-015 13.4166 -1.91665 -0.016116 -5.51061 -1.88502 3.81534 24.0346 -0.234509 13.6021 -0.625651 1.58599 8.62273 0 0 -5.3034 -0.375832 -3.26651 31.7064 0 -2.84217e-014 0.522369 -1.36277 -0.52734 23.7731 2.84217e-014 0 13.5497 -1.03978 2.69899 -3.83608 24.0346 -0.234509 -9.8476 1.19435 6.72286 -8.62273 0 -2.84217e-014 1.63984 -2.00292 -0.624724 -31.7064 0 0 -1.23378 -2.09965 1.30356 -23.7731 2.84217e-014 2.84217e-014 -10.944 -2.29643 2.20203 9.58328 0 0 0.594161 7.13289 -0.764097 0 -36.4535 2.84217e-014 -8.09349 -4.2945 0.346339 0 -41.4659 0 10.3954 -7.27737 7.45377 0 -6.22913 14.3749 7.95139e-016 7.95139e-016 -4.77083e-015 -9.58328 -1.42109e-014 2.84217e-014 -1.58388 1.72874 -2.35613 0 -36.4535 2.84217e-014 4.23107 6.87497 0.758912 0 -41.4659 0 -15.042 -12.6299 -18.6486 3.55271e-015 -6.22913 14.3749 1.98785e-015 0 -3.18055e-015 
0 0 0 0 0 -0 36.3463 78.1184 -198.051 1.88944 -0.179439 1.57 0 7.85829 0 -2.20353 -8.48908 0.062427 0 25.1384 0 0.46231 -1.70363 0.23401 -7.10543e-015 25.0351 2.27592 -1.48011 30.2092 -1.61207 -3.55271e-015 13.4166 -1.91665 -0.042937 -5.44376 -1.88908 3.81534 24.0346 -0.234509 13.6011 -0.625651 1.58599 8.62273 0 0 -5.29475 -0.365421 -3.25541 31.7064 2.84217e-014 0 0.541971 -1.40863 -0.575769 23.7731 2.84217e-014 2.84217e-014 13.4297 -1.06948 2.85795 -3.83608 24.0346 -0.234509 -9.87203 1.18553 6.72079 -8.62273 0 0 1.64065 -1.99654 -0.634875 -31.7064 2.84217e-014 0 -1.23793 -2.06192 1.30904 -23.7731 0 0 -11.0537 -2.26005 2.19951 9.58328 -1.42109e-014 -2.84217e-014 0.590207 7.13134 -0.764094 -7.10543e-015 -36.4535 0 -8.07143 -4.29719 0.291431 0 -41.4659 0 10.3613 -7.26785 7.49938 1.42109e-014 -6.22913 14.3749 -1.98785e-016 -7.95139e-016 -4.77083e-015 -9.58328 -2.84217e-014 0 -1.58007 1.72241 -2.35612 0 -36.4535 0 4.22955 6.8687 0.73051 -3.55271e-015 -41.4659 0 -15.019 -12.6312 -18.6301 0 -6.22913 14.3749 -2.5842e-015 0 3.18055e-015 
